<svg xmlns="http://www.w3.org/2000/svg" width="25" height="24" viewBox="0 0 25 24">
    <g fill="none" fill-rule="evenodd">
        <g fill="#FFF" fill-rule="nonzero">
            <g>
                <g>
                    <path d="M249.372.906C248.768.302 248.044 0 247.2 0h-17.844c-.843 0-1.567.302-2.172.906-.604.604-.906 1.328-.906 2.172v17.844c0 .843.302 1.567.906 2.172.605.604 1.329.906 2.172.906H247.2c.843 0 1.568-.302 2.172-.906.604-.605.906-1.329.906-2.172V3.078c0-.844-.302-1.567-.906-2.172zm-14.476 7.742c.942-.911 2.075-1.367 3.398-1.367 1.333 0 2.471.456 3.414 1.367.943.912 1.414 2.013 1.414 3.305 0 1.292-.471 2.393-1.414 3.304-.943.912-2.08 1.368-3.414 1.368-1.323 0-2.456-.456-3.398-1.368-.943-.91-1.415-2.012-1.415-3.304 0-1.292.472-2.393 1.415-3.305zm12.664 11.633c0 .271-.094.498-.282.68-.188.182-.411.273-.672.273h-16.703c-.27 0-.497-.09-.68-.273-.182-.182-.273-.409-.273-.68V10.156h2.203c-.208.656-.312 1.339-.312 2.047 0 2 .729 3.706 2.187 5.118 1.459 1.41 3.214 2.117 5.266 2.117 1.354 0 2.604-.323 3.75-.97 1.146-.645 2.052-1.523 2.719-2.632.667-1.11 1-2.32 1-3.633 0-.708-.105-1.39-.313-2.047h2.11v10.125zm0-13.953c0 .302-.104.557-.313.766-.208.208-.463.312-.766.312h-2.718c-.302 0-.558-.104-.766-.312-.208-.209-.312-.464-.312-.766V3.75c0-.292.104-.544.312-.758.208-.213.464-.32.766-.32h2.718c.303 0 .558.107.766.32.208.214.313.466.313.758v2.578z" transform="translate(-546 -4658) translate(0 4582) translate(320 76)"/>
                </g>
            </g>
        </g>
    </g>
</svg>
