<svg xmlns="http://www.w3.org/2000/svg" width="35" height="24" viewBox="0 0 35 24">
    <g fill="none" fill-rule="evenodd">
        <g fill="#FFF" fill-rule="nonzero">
            <g>
                <g>
                    <path d="M193.572 3.755c-.395-1.468-1.553-2.626-3.021-3.021C187.868 0 177.139 0 177.139 0s-10.73 0-13.412.706c-1.44.395-2.626 1.581-3.021 3.05C160 6.437 160 12 160 12s0 5.59.706 8.245c.395 1.468 1.553 2.625 3.021 3.02 2.71.735 13.412.735 13.412.735s10.73 0 13.412-.706c1.468-.395 2.626-1.553 3.021-3.021.706-2.683.706-8.245.706-8.245s.028-5.59-.706-8.273zm-19.85 13.384V6.86L182.645 12l-8.923 5.139z" transform="translate(-480 -4658) translate(0 4582) translate(320 76)"/>
                </g>
            </g>
        </g>
    </g>
</svg>
